<svg xmlns="http://www.w3.org/2000/svg" viewBox="0 0 180 180"><path d="M51.93,180c-28-2.45-38.25-7.57-38.25-17.8,0-16.56,22.91-40.7,22.91-56.45,0-13.09-11-16.36-36.61-16.57V87.34c29.45-.41,36.61-5.73,36.61-19.23,0-17-22.09-34.77-22.09-47,0-10.43,11.87-17.18,35-21.07l.2,1C26,5.93,22.07,9.82,22.07,18.82c0,11.66,19.64,29.45,19.64,45.82,0,15.75-11.25,21.27-28.44,23.11v1c16.57,1,28.44,4.71,28.44,15.14,0,19.63-19.64,45.61-19.64,57.07,0,10.43,5.73,14.72,29.86,17.79Zm105.66-18.2c0-11.66-19.64-34.37-19.64-51.55,0-14.93,11.45-19.84,28.64-21.48v-1C149.81,86.32,138,82.64,138,71.8c0-19.44,19.64-41.12,19.64-52.37,0-10-5.73-14.73-29.25-18.2V0c26.79,2.86,37.43,8.39,37.43,18.61,0,15.55-22.5,35.59-22.5,51.75,0,12.89,9.82,16.78,36.61,17l-.2,1.84c-28.43.41-36.41,5.11-36.41,18.21,0,17,22.09,39.06,22.09,52.36,0,10.43-11.46,16.77-35.8,20.25l-.2-1.23C153.7,174.27,157.59,171,157.59,161.8Z" fill="#231f20"/></svg>