<svg xmlns="http://www.w3.org/2000/svg" width="928.755" height="628.39" viewBox="0 0 928.755 628.39"><g transform="translate(927.755 627.39) rotate(180)"><path d="M637.831,99.7H49.848a49.848,49.848,0,1,1,0-99.7H637.831" transform="translate(289.923 263.348)" fill="none" stroke="#efefef" stroke-miterlimit="10" stroke-width="2"/><path d="M651.638,124.775H62.389A62.387,62.387,0,1,1,62.389,0H651.638" transform="translate(276.117 250.809)" fill="none" stroke="#efefef" stroke-miterlimit="10" stroke-width="2"/><path d="M665.442,149.857H74.928A74.929,74.929,0,0,1,74.928,0H665.442" transform="translate(262.312 238.267)" fill="none" stroke="#efefef" stroke-miterlimit="10" stroke-width="2"/><path d="M679.249,174.94H87.468A87.47,87.47,0,0,1,87.468,0H679.249" transform="translate(248.506 225.726)" fill="none" stroke="#efefef" stroke-miterlimit="10" stroke-width="2"/><path d="M693.055,200.018H100.009A100.009,100.009,0,0,1,100.009,0H693.055" transform="translate(234.699 213.187)" fill="none" stroke="#efefef" stroke-miterlimit="10" stroke-width="2"/><path d="M706.86,225.1H112.548a112.55,112.55,0,0,1,0-225.1H706.86" transform="translate(220.895 200.646)" fill="none" stroke="#efefef" stroke-miterlimit="10" stroke-width="2"/><path d="M720.667,250.179H125.089A125.089,125.089,0,1,1,125.089,0H720.667" transform="translate(207.088 188.106)" fill="none" stroke="#efefef" stroke-miterlimit="10" stroke-width="2"/><path d="M734.473,275.261H137.63A137.631,137.631,0,0,1,137.63,0H734.473" transform="translate(193.282 175.565)" fill="none" stroke="#efefef" stroke-miterlimit="10" stroke-width="2"/><path d="M748.278,300.34H150.17A150.17,150.17,0,1,1,150.17,0H748.278" transform="translate(179.477 163.026)" fill="none" stroke="#efefef" stroke-miterlimit="10" stroke-width="2"/><path d="M762.084,325.422H162.711A162.711,162.711,0,0,1,162.711,0H762.084" transform="translate(165.67 150.485)" fill="none" stroke="#efefef" stroke-miterlimit="10" stroke-width="2"/><path d="M775.891,350.5H175.252a175.25,175.25,0,1,1,0-350.5H775.891" transform="translate(151.864 137.945)" fill="none" stroke="#efefef" stroke-miterlimit="10" stroke-width="2"/><path d="M789.7,375.583h-601.9C84.076,375.583,0,291.506,0,187.792S84.076,0,187.792,0H789.7" transform="translate(138.059 125.404)" fill="none" stroke="#efefef" stroke-miterlimit="10" stroke-width="2"/><path d="M803.5,400.662H200.333C89.692,400.662,0,310.972,0,200.331S89.692,0,200.333,0H803.5" transform="translate(124.253 112.865)" fill="none" stroke="#efefef" stroke-miterlimit="10" stroke-width="2"/><path d="M817.308,425.744H212.872C95.306,425.744,0,330.438,0,212.872S95.306,0,212.872,0H817.308" transform="translate(110.446 100.324)" fill="none" stroke="#efefef" stroke-miterlimit="10" stroke-width="2"/><path d="M831.113,450.827h-605.7C100.92,450.827,0,349.9,0,225.413S100.92,0,225.411,0h605.7" transform="translate(96.642 87.783)" fill="none" stroke="#efefef" stroke-miterlimit="10" stroke-width="2"/><path d="M844.919,475.905H237.953C106.534,475.905,0,369.371,0,237.953S106.534,0,237.953,0H844.919" transform="translate(82.835 75.243)" fill="none" stroke="#efefef" stroke-miterlimit="10" stroke-width="2"/><path d="M858.726,500.988H250.494C112.151,500.988,0,388.837,0,250.494S112.151,0,250.494,0H858.726" transform="translate(69.029 62.702)" fill="none" stroke="#efefef" stroke-miterlimit="10" stroke-width="2"/><path d="M872.531,526.066h-609.5C117.762,526.066,0,408.3,0,263.033S117.762,0,263.033,0h609.5" transform="translate(55.224 50.163)" fill="none" stroke="#efefef" stroke-miterlimit="10" stroke-width="2"/><path d="M886.337,551.148H275.574C123.379,551.148,0,427.769,0,275.574S123.379,0,275.574,0H886.337" transform="translate(41.418 37.622)" fill="none" stroke="#efefef" stroke-miterlimit="10" stroke-width="2"/><path d="M900.144,576.227H288.115C128.993,576.227,0,447.234,0,288.113S128.993,0,288.115,0H900.144" transform="translate(27.611 25.083)" fill="none" stroke="#efefef" stroke-miterlimit="10" stroke-width="2"/><path d="M913.948,601.309H300.655C134.607,601.309,0,466.7,0,300.655S134.607,0,300.655,0H913.948" transform="translate(13.807 12.541)" fill="none" stroke="#efefef" stroke-miterlimit="10" stroke-width="2"/><path d="M927.755,626.39H313.194C140.221,626.39,0,486.168,0,313.2S140.221,0,313.194,0H927.755" transform="translate(0 0)" fill="none" stroke="#efefef" stroke-miterlimit="10" stroke-width="2"/></g></svg>