<svg xmlns="http://www.w3.org/2000/svg" width="1350.829" height="678.202" viewBox="0 0 1350.829 678.202"><g transform="translate(1350.829 1) rotate(90)"><line y1="675.41" transform="translate(0)" fill="none" stroke="#fff" stroke-miterlimit="10" stroke-width="2"/><line y1="643.251" x2="32.249" transform="translate(0 32.159)" fill="none" stroke="#fff" stroke-miterlimit="10" stroke-width="2"/><line y1="611.083" x2="64.498" transform="translate(0 64.327)" fill="none" stroke="#fff" stroke-miterlimit="10" stroke-width="2"/><line y1="578.924" x2="96.747" transform="translate(0 96.486)" fill="none" stroke="#fff" stroke-miterlimit="10" stroke-width="2"/><line y1="546.756" x2="128.996" transform="translate(0 128.654)" fill="none" stroke="#fff" stroke-miterlimit="10" stroke-width="2"/><line y1="514.597" x2="161.245" transform="translate(0 160.813)" fill="none" stroke="#fff" stroke-miterlimit="10" stroke-width="2"/><line y1="482.429" x2="193.494" transform="translate(0 192.981)" fill="none" stroke="#fff" stroke-miterlimit="10" stroke-width="2"/><line y1="450.27" x2="225.734" transform="translate(0 225.14)" fill="none" stroke="#fff" stroke-miterlimit="10" stroke-width="2"/><line y1="418.111" x2="257.983" transform="translate(0 257.299)" fill="none" stroke="#fff" stroke-miterlimit="10" stroke-width="2"/><line y1="385.943" x2="290.232" transform="translate(0 289.467)" fill="none" stroke="#fff" stroke-miterlimit="10" stroke-width="2"/><line y1="353.785" x2="322.481" transform="translate(0 321.626)" fill="none" stroke="#fff" stroke-miterlimit="10" stroke-width="2"/><line y1="321.617" x2="354.73" transform="translate(0 353.794)" fill="none" stroke="#fff" stroke-miterlimit="10" stroke-width="2"/><line y1="289.458" x2="386.979" transform="translate(0 385.952)" fill="none" stroke="#fff" stroke-miterlimit="10" stroke-width="2"/><line y1="257.29" x2="419.228" transform="translate(0 418.12)" fill="none" stroke="#fff" stroke-miterlimit="10" stroke-width="2"/><line y1="225.131" x2="451.468" transform="translate(0 450.279)" fill="none" stroke="#fff" stroke-miterlimit="10" stroke-width="2"/><line y1="192.972" x2="483.717" transform="translate(0 482.438)" fill="none" stroke="#fff" stroke-miterlimit="10" stroke-width="2"/><line y1="160.804" x2="515.966" transform="translate(0 514.606)" fill="none" stroke="#fff" stroke-miterlimit="10" stroke-width="2"/><line y1="128.645" x2="548.215" transform="translate(0 546.765)" fill="none" stroke="#fff" stroke-miterlimit="10" stroke-width="2"/><line y1="96.477" x2="580.464" transform="translate(0 578.933)" fill="none" stroke="#fff" stroke-miterlimit="10" stroke-width="2"/><line y1="64.318" x2="612.713" transform="translate(0 611.092)" fill="none" stroke="#fff" stroke-miterlimit="10" stroke-width="2"/><line y1="32.15" x2="644.953" transform="translate(0 643.26)" fill="none" stroke="#fff" stroke-miterlimit="10" stroke-width="2"/><line x2="677.202" y2="0.009" transform="translate(0 675.41)" fill="none" stroke="#fff" stroke-miterlimit="10" stroke-width="2"/><line x2="644.953" y2="32.168" transform="translate(0 675.41)" fill="none" stroke="#fff" stroke-miterlimit="10" stroke-width="2"/><line x2="612.713" y2="64.336" transform="translate(0 675.41)" fill="none" stroke="#fff" stroke-miterlimit="10" stroke-width="2"/><line x2="580.464" y2="96.495" transform="translate(0 675.41)" fill="none" stroke="#fff" stroke-miterlimit="10" stroke-width="2"/><line x2="548.215" y2="128.663" transform="translate(0 675.41)" fill="none" stroke="#fff" stroke-miterlimit="10" stroke-width="2"/><line x2="515.966" y2="160.822" transform="translate(0 675.41)" fill="none" stroke="#fff" stroke-miterlimit="10" stroke-width="2"/><line x2="483.717" y2="192.981" transform="translate(0 675.41)" fill="none" stroke="#fff" stroke-miterlimit="10" stroke-width="2"/><line x2="451.468" y2="225.149" transform="translate(0 675.41)" fill="none" stroke="#fff" stroke-miterlimit="10" stroke-width="2"/><line x2="419.228" y2="257.308" transform="translate(0 675.41)" fill="none" stroke="#fff" stroke-miterlimit="10" stroke-width="2"/><line x2="386.979" y2="289.467" transform="translate(0 675.41)" fill="none" stroke="#fff" stroke-miterlimit="10" stroke-width="2"/><line x2="354.73" y2="321.626" transform="translate(0 675.419)" fill="none" stroke="#fff" stroke-miterlimit="10" stroke-width="2"/><line x2="322.481" y2="353.785" transform="translate(0 675.419)" fill="none" stroke="#fff" stroke-miterlimit="10" stroke-width="2"/><line x2="290.232" y2="385.952" transform="translate(0 675.419)" fill="none" stroke="#fff" stroke-miterlimit="10" stroke-width="2"/><line x2="257.983" y2="418.111" transform="translate(0 675.419)" fill="none" stroke="#fff" stroke-miterlimit="10" stroke-width="2"/><line x2="225.734" y2="450.27" transform="translate(0 675.419)" fill="none" stroke="#fff" stroke-miterlimit="10" stroke-width="2"/><line x2="193.494" y2="482.438" transform="translate(0 675.419)" fill="none" stroke="#fff" stroke-miterlimit="10" stroke-width="2"/><line x2="161.245" y2="514.597" transform="translate(0 675.419)" fill="none" stroke="#fff" stroke-miterlimit="10" stroke-width="2"/><line x2="128.996" y2="546.765" transform="translate(0 675.419)" fill="none" stroke="#fff" stroke-miterlimit="10" stroke-width="2"/><line x2="96.747" y2="578.924" transform="translate(0 675.419)" fill="none" stroke="#fff" stroke-miterlimit="10" stroke-width="2"/><line x2="64.498" y2="611.083" transform="translate(0 675.419)" fill="none" stroke="#fff" stroke-miterlimit="10" stroke-width="2"/><line x2="32.249" y2="643.251" transform="translate(0 675.419)" fill="none" stroke="#fff" stroke-miterlimit="10" stroke-width="2"/><line y2="675.41" transform="translate(0 675.419)" fill="none" stroke="#fff" stroke-miterlimit="10" stroke-width="2"/></g></svg>