<svg width="812" height="811" viewBox="0 0 812 811" fill="none" xmlns="http://www.w3.org/2000/svg">
<path d="M86.873 406L723.891 406" stroke="#E4E1DE" stroke-opacity="0.21"/>
<path d="M406 725L406 88" stroke="#E4E1DE" stroke-opacity="0.21"/>
<path d="M1 811L811 0.99996" stroke="#E4E1DE" stroke-opacity="0.21" stroke-linecap="round" stroke-linejoin="round"/>
<path d="M1 1L811 811" stroke="#E4E1DE" stroke-opacity="0.21" stroke-linecap="round" stroke-linejoin="round"/>
<path d="M634.921 406.5C634.911 436.638 628.964 466.482 617.421 494.326C605.878 522.17 588.965 547.47 567.647 568.781C546.328 590.092 521.023 606.997 493.174 618.53C465.326 630.064 435.481 636 405.343 636C375.204 636 345.363 630.064 317.523 618.53C289.683 606.997 264.388 590.092 243.085 568.781C221.781 547.47 204.885 522.17 193.361 494.326C181.837 466.482 175.911 436.638 175.921 406.5C175.931 376.362 181.878 346.518 193.421 318.674C204.964 290.83 221.877 265.53 243.195 244.219C264.514 222.908 289.819 206.003 317.668 194.47C345.516 182.936 375.361 177 405.499 177C435.638 177 465.479 182.936 493.319 194.47C521.16 206.003 546.454 222.908 567.757 244.219C589.061 265.53 605.957 290.83 617.481 318.674C629.005 346.518 634.931 376.362 634.921 406.5L634.921 406.5Z" stroke="#E4E1DE" stroke-opacity="0.21"/>
<path d="M724.89 406.5C724.876 448.457 716.598 490.004 700.528 528.767C684.458 567.531 660.912 602.752 631.234 632.421C601.555 662.089 566.326 685.623 527.557 701.68C488.788 717.736 447.239 726 405.281 726C363.324 726 321.78 717.736 283.022 701.679C244.264 685.623 209.051 662.089 179.393 632.421C149.734 602.752 126.212 567.531 110.169 528.767C94.1259 490.004 85.876 448.457 85.8903 406.5C85.9046 364.543 94.1829 322.996 110.253 284.233C126.322 245.469 149.868 210.248 179.547 180.579C209.225 150.911 244.455 127.377 283.224 111.32C321.993 95.2641 363.542 87 405.499 87C447.457 87 489 95.2641 527.758 111.321C566.516 127.377 601.73 150.911 631.388 180.579C661.046 210.248 684.568 245.469 700.612 284.233C716.655 322.996 724.905 364.543 724.89 406.5L724.89 406.5Z" stroke="#E4E1DE" stroke-opacity="0.21" stroke-dasharray="15 15"/>
<path d="M597.495 408.15L587.641 408.074L587.646 407.483L597.5 407.559L597.495 408.15Z" fill="#E4E1DE" fill-opacity="0.21"/>
<path d="M597.336 414.968L587.491 414.55L587.517 413.959L597.361 414.377L597.336 414.968Z" fill="#E4E1DE" fill-opacity="0.21"/>
<path d="M596.888 422.447L587.066 421.649L587.114 421.06L596.935 421.857L596.888 422.447Z" fill="#E4E1DE" fill-opacity="0.21"/>
<path d="M596.158 429.832L586.375 428.657L586.445 428.07L596.229 429.245L596.158 429.832Z" fill="#E4E1DE" fill-opacity="0.21"/>
<path d="M595.251 436.505L585.514 434.993L585.604 434.409L595.341 435.921L595.251 436.505Z" fill="#E4E1DE" fill-opacity="0.21"/>
<path d="M593.996 443.737L584.324 441.854L584.437 441.274L594.109 443.157L593.996 443.737Z" fill="#E4E1DE" fill-opacity="0.21"/>
<path d="M592.475 450.874L582.882 448.623L583.017 448.048L592.61 450.298L592.475 450.874Z" fill="#E4E1DE" fill-opacity="0.21"/>
<path d="M590.693 457.913L581.192 455.299L581.349 454.729L590.85 457.342L590.693 457.913Z" fill="#E4E1DE" fill-opacity="0.21"/>
<path d="M588.653 464.851L579.258 461.88L579.436 461.316L588.831 464.287L588.653 464.851Z" fill="#E4E1DE" fill-opacity="0.21"/>
<path d="M586.36 471.686L577.083 468.363L577.282 467.806L586.559 471.129L586.36 471.686Z" fill="#E4E1DE" fill-opacity="0.21"/>
<path d="M583.817 478.412L574.671 474.744L574.891 474.195L584.037 477.864L583.817 478.412Z" fill="#E4E1DE" fill-opacity="0.21"/>
<path d="M581.028 485.027L572.025 481.02L572.266 480.48L581.268 484.487L581.028 485.027Z" fill="#E4E1DE" fill-opacity="0.21"/>
<path d="M577.997 491.524L569.15 487.185L569.41 486.655L578.257 490.994L577.997 491.524Z" fill="#E4E1DE" fill-opacity="0.21"/>
<path d="M574.727 497.899L566.047 493.235L566.327 492.714L575.007 497.378L574.727 497.899Z" fill="#E4E1DE" fill-opacity="0.21"/>
<path d="M571.224 504.144L562.722 499.164L563.021 498.654L571.523 503.634L571.224 504.144Z" fill="#E4E1DE" fill-opacity="0.21"/>
<path d="M567.311 510.539L559.017 505.218L559.336 504.721L567.631 510.041L567.311 510.539Z" fill="#E4E1DE" fill-opacity="0.21"/>
<path d="M563.355 516.483L555.261 510.862L555.598 510.377L563.692 515.997L563.355 516.483Z" fill="#E4E1DE" fill-opacity="0.21"/>
<path d="M559.179 522.279L551.296 516.367L551.651 515.894L559.534 521.806L559.179 522.279Z" fill="#E4E1DE" fill-opacity="0.21"/>
<path d="M554.788 527.921L547.126 521.726L547.498 521.266L555.16 527.462L554.788 527.921Z" fill="#E4E1DE" fill-opacity="0.21"/>
<path d="M550.189 533.402L542.757 526.931L543.145 526.486L550.577 532.956L550.189 533.402Z" fill="#E4E1DE" fill-opacity="0.21"/>
<path d="M545.226 538.884L538.059 532.122L538.464 531.692L545.632 538.454L545.226 538.884Z" fill="#E4E1DE" fill-opacity="0.21"/>
<path d="M540.23 544L533.314 536.982L533.735 536.567L540.652 543.585L540.23 544Z" fill="#E4E1DE" fill-opacity="0.21"/>
<path d="M535.044 548.934L528.387 541.669L528.823 541.27L535.48 548.535L535.044 548.934Z" fill="#E4E1DE" fill-opacity="0.21"/>
<path d="M529.673 553.678L523.284 546.176L523.734 545.793L530.123 553.295L529.673 553.678Z" fill="#E4E1DE" fill-opacity="0.21"/>
<path d="M523.996 558.327L517.913 550.575L518.378 550.21L524.461 557.962L523.996 558.327Z" fill="#E4E1DE" fill-opacity="0.21"/>
<path d="M518.284 562.655L512.488 554.686L512.966 554.338L518.762 562.307L518.284 562.655Z" fill="#E4E1DE" fill-opacity="0.21"/>
<path d="M512.41 566.772L506.909 558.597L507.399 558.267L512.9 566.442L512.41 566.772Z" fill="#E4E1DE" fill-opacity="0.21"/>
<path d="M506.38 570.672L501.182 562.301L501.685 561.989L506.883 570.36L506.38 570.672Z" fill="#E4E1DE" fill-opacity="0.21"/>
<path d="M500.204 574.348L495.318 565.791L495.831 565.498L500.718 574.055L500.204 574.348Z" fill="#E4E1DE" fill-opacity="0.21"/>
<path d="M493.89 577.793L489.323 569.061L489.847 568.787L494.414 577.519L493.89 577.793Z" fill="#E4E1DE" fill-opacity="0.21"/>
<path d="M487.372 581.037L483.165 572.127L483.699 571.874L487.906 580.785L487.372 581.037Z" fill="#E4E1DE" fill-opacity="0.21"/>
<path d="M480.817 583.996L476.945 574.935L477.488 574.702L481.361 583.763L480.817 583.996Z" fill="#E4E1DE" fill-opacity="0.21"/>
<path d="M474.152 586.707L470.622 577.507L471.174 577.296L474.704 586.495L474.152 586.707Z" fill="#E4E1DE" fill-opacity="0.21"/>
<path d="M467.388 589.166L464.205 579.841L464.765 579.65L467.947 588.975L467.388 589.166Z" fill="#E4E1DE" fill-opacity="0.21"/>
<path d="M460.533 591.37L457.705 581.931L458.271 581.761L461.1 591.2L460.533 591.37Z" fill="#E4E1DE" fill-opacity="0.21"/>
<path d="M453.599 593.314L451.131 583.775L451.703 583.627L454.172 593.166L453.599 593.314Z" fill="#E4E1DE" fill-opacity="0.21"/>
<path d="M446.597 594.996L444.493 585.37L445.07 585.243L447.174 594.87L446.597 594.996Z" fill="#E4E1DE" fill-opacity="0.21"/>
<path d="M439.563 596.407L437.791 586.714L438.373 586.607L440.145 596.3L439.563 596.407Z" fill="#E4E1DE" fill-opacity="0.21"/>
<path d="M432.451 597.559L431.051 587.805L431.636 587.721L433.036 597.475L432.451 597.559Z" fill="#E4E1DE" fill-opacity="0.21"/>
<path d="M425.302 598.445L424.278 588.644L424.866 588.583L425.89 598.383L425.302 598.445Z" fill="#E4E1DE" fill-opacity="0.21"/>
<path d="M418.126 599.063L417.48 589.23L418.07 589.191L418.716 599.024L418.126 599.063Z" fill="#E4E1DE" fill-opacity="0.21"/>
<path d="M410.95 599.412L410.646 589.563L411.237 589.545L411.541 599.394L410.95 599.412Z" fill="#E4E1DE" fill-opacity="0.21"/>
<path d="M402.991 599.493L403.105 589.64L403.696 589.647L403.582 599.5L402.991 599.493Z" fill="#E4E1DE" fill-opacity="0.21"/>
<path d="M395.81 599.287L396.266 589.444L396.856 589.471L396.4 599.314L395.81 599.287Z" fill="#E4E1DE" fill-opacity="0.21"/>
<path d="M388.625 598.816L389.46 588.998L390.049 589.048L389.214 598.866L388.625 598.816Z" fill="#E4E1DE" fill-opacity="0.21"/>
<path d="M381.483 598.08L382.657 588.296L383.244 588.367L382.07 598.151L381.483 598.08Z" fill="#E4E1DE" fill-opacity="0.21"/>
<path d="M374.354 597.076L375.903 587.345L376.487 587.438L374.938 597.169L374.354 597.076Z" fill="#E4E1DE" fill-opacity="0.21"/>
<path d="M367.269 595.806L369.189 586.141L369.769 586.256L367.849 595.921L367.269 595.806Z" fill="#E4E1DE" fill-opacity="0.21"/>
<path d="M360.236 594.27L362.523 584.686L363.098 584.823L360.811 594.408L360.236 594.27Z" fill="#E4E1DE" fill-opacity="0.21"/>
<path d="M353.267 592.471L355.916 582.98L356.485 583.139L353.836 592.63L353.267 592.471Z" fill="#E4E1DE" fill-opacity="0.21"/>
<path d="M346.371 590.412L349.378 581.028L349.941 581.208L346.934 590.592L346.371 590.412Z" fill="#E4E1DE" fill-opacity="0.21"/>
<path d="M339.561 588.094L342.918 578.83L343.474 579.031L340.116 588.296L339.561 588.094Z" fill="#E4E1DE" fill-opacity="0.21"/>
<path d="M332.845 585.523L336.547 576.391L337.095 576.613L333.393 585.745L332.845 585.523Z" fill="#E4E1DE" fill-opacity="0.21"/>
<path d="M326.234 582.703L330.274 573.715L330.814 573.958L326.773 582.945L326.234 582.703Z" fill="#E4E1DE" fill-opacity="0.21"/>
<path d="M319.737 579.638L324.109 570.807L324.639 571.07L320.267 579.901L319.737 579.638Z" fill="#E4E1DE" fill-opacity="0.21"/>
<path d="M313.365 576.335L318.061 567.672L318.581 567.954L313.885 576.617L313.365 576.335Z" fill="#E4E1DE" fill-opacity="0.21"/>
<path d="M307.127 572.8L312.139 564.316L312.648 564.617L307.636 573.101L307.127 572.8Z" fill="#E4E1DE" fill-opacity="0.21"/>
<path d="M301.03 569.039L306.35 560.745L306.848 561.064L301.528 569.358L301.03 569.039Z" fill="#E4E1DE" fill-opacity="0.21"/>
<path d="M294.97 564.979L300.62 556.906L301.104 557.245L295.454 565.318L294.97 564.979Z" fill="#E4E1DE" fill-opacity="0.21"/>
<path d="M289.174 560.773L295.115 552.911L295.587 553.268L289.646 561.129L289.174 560.773Z" fill="#E4E1DE" fill-opacity="0.21"/>
<path d="M283.544 556.36L289.768 548.72L290.226 549.093L284.003 556.733L283.544 556.36Z" fill="#E4E1DE" fill-opacity="0.21"/>
<path d="M278.088 551.747L284.585 544.339L285.03 544.729L278.532 552.137L278.088 551.747Z" fill="#E4E1DE" fill-opacity="0.21"/>
<path d="M272.664 546.804L279.452 539.661L279.88 540.068L273.092 547.211L272.664 546.804Z" fill="#E4E1DE" fill-opacity="0.21"/>
<path d="M267.568 541.796L274.611 534.905L275.024 535.328L267.981 542.219L267.568 541.796Z" fill="#E4E1DE" fill-opacity="0.21"/>
<path d="M262.665 536.61L269.954 529.98L270.352 530.417L263.063 537.048L262.665 536.61Z" fill="#E4E1DE" fill-opacity="0.21"/>
<path d="M257.962 531.253L265.487 524.892L265.869 525.343L258.344 531.705L257.962 531.253Z" fill="#E4E1DE" fill-opacity="0.21"/>
<path d="M253.464 525.732L261.216 519.649L261.581 520.114L253.829 526.197L253.464 525.732Z" fill="#E4E1DE" fill-opacity="0.21"/>
<path d="M248.999 519.813L256.989 514.046L257.335 514.525L249.345 520.292L248.999 519.813Z" fill="#E4E1DE" fill-opacity="0.21"/>
<path d="M244.924 513.962L253.119 508.491L253.448 508.982L245.252 514.454L244.924 513.962Z" fill="#E4E1DE" fill-opacity="0.21"/>
<path d="M241.069 507.967L249.46 502.8L249.77 503.304L241.379 508.471L241.069 507.967Z" fill="#E4E1DE" fill-opacity="0.21"/>
<path d="M237.44 501.835L246.015 496.98L246.306 497.495L237.731 502.35L237.44 501.835Z" fill="#E4E1DE" fill-opacity="0.21"/>
<path d="M234.04 495.573L242.788 491.038L243.061 491.563L234.312 496.097L234.04 495.573Z" fill="#E4E1DE" fill-opacity="0.21"/>
<path d="M230.874 489.185L239.784 484.978L240.037 485.513L231.126 489.72L230.874 489.185Z" fill="#E4E1DE" fill-opacity="0.21"/>
<path d="M227.944 482.679L237.005 478.806L237.238 479.35L228.177 483.222L227.944 482.679Z" fill="#E4E1DE" fill-opacity="0.21"/>
<path d="M225.089 475.624L234.302 472.128L234.512 472.68L225.299 476.177L225.089 475.624Z" fill="#E4E1DE" fill-opacity="0.21"/>
<path d="M222.654 468.864L231.991 465.716L232.18 466.276L222.843 469.424L222.654 468.864Z" fill="#E4E1DE" fill-opacity="0.21"/>
<path d="M220.469 461.997L229.918 459.204L230.086 459.771L220.636 462.564L220.469 461.997Z" fill="#E4E1DE" fill-opacity="0.21"/>
<path d="M218.675 455.559L228.214 453.09L228.363 453.663L218.823 456.132L218.675 455.559Z" fill="#E4E1DE" fill-opacity="0.21"/>
<path d="M216.988 448.525L226.615 446.421L226.741 446.998L217.115 449.102L216.988 448.525Z" fill="#E4E1DE" fill-opacity="0.21"/>
<path d="M215.562 441.394L225.262 439.659L225.366 440.241L215.666 441.976L215.562 441.394Z" fill="#E4E1DE" fill-opacity="0.21"/>
<path d="M214.4 434.168L224.159 432.806L224.241 433.392L214.482 434.754L214.4 434.168Z" fill="#E4E1DE" fill-opacity="0.21"/>
<path d="M213.508 426.848L223.313 425.862L223.372 426.45L213.567 427.437L213.508 426.848Z" fill="#E4E1DE" fill-opacity="0.21"/>
<path d="M212.938 420.133L222.771 419.488L222.81 420.078L212.977 420.723L212.938 420.133Z" fill="#E4E1DE" fill-opacity="0.21"/>
<path d="M212.579 412.66L222.429 412.394L222.445 412.985L212.595 413.251L212.579 412.66Z" fill="#E4E1DE" fill-opacity="0.21"/>
<path d="M212.506 405.106L222.359 405.22L222.353 405.811L212.5 405.697L212.506 405.106Z" fill="#E4E1DE" fill-opacity="0.21"/>
<path d="M212.724 397.579L222.565 398.074L222.535 398.664L212.694 398.17L212.724 397.579Z" fill="#E4E1DE" fill-opacity="0.21"/>
<path d="M213.229 390.106L223.044 390.979L222.991 391.568L213.176 390.695L213.229 390.106Z" fill="#E4E1DE" fill-opacity="0.21"/>
<path d="M213.915 383.522L223.694 384.734L223.621 385.32L213.842 384.108L213.915 383.522Z" fill="#E4E1DE" fill-opacity="0.21"/>
<path d="M214.947 376.208L224.673 377.794L224.577 378.377L214.852 376.791L214.947 376.208Z" fill="#E4E1DE" fill-opacity="0.21"/>
<path d="M216.252 368.979L225.91 370.936L225.792 371.516L216.135 369.559L216.252 368.979Z" fill="#E4E1DE" fill-opacity="0.21"/>
<path d="M217.824 361.846L227.4 364.169L227.26 364.744L217.684 362.42L217.824 361.846Z" fill="#E4E1DE" fill-opacity="0.21"/>
<path d="M219.655 354.816L229.136 357.502L228.975 358.071L219.494 355.385L219.655 354.816Z" fill="#E4E1DE" fill-opacity="0.21"/>
<path d="M221.741 347.899L231.114 350.941L230.931 351.503L221.559 348.462L221.741 347.899Z" fill="#E4E1DE" fill-opacity="0.21"/>
<path d="M224.074 341.102L233.325 344.494L233.121 345.05L223.87 341.657L224.074 341.102Z" fill="#E4E1DE" fill-opacity="0.21"/>
<path d="M226.646 334.432L235.764 338.168L235.54 338.715L226.422 334.979L226.646 334.432Z" fill="#E4E1DE" fill-opacity="0.21"/>
<path d="M229.452 327.894L238.424 331.968L238.179 332.506L229.207 328.432L229.452 327.894Z" fill="#E4E1DE" fill-opacity="0.21"/>
<path d="M232.483 321.494L241.298 325.899L241.033 326.428L232.219 322.023L232.483 321.494Z" fill="#E4E1DE" fill-opacity="0.21"/>
<path d="M235.734 315.239L244.38 319.966L244.096 320.485L235.45 315.758L235.734 315.239Z" fill="#E4E1DE" fill-opacity="0.21"/>
<path d="M239.197 309.131L247.663 314.175L247.36 314.682L238.895 309.639L239.197 309.131Z" fill="#E4E1DE" fill-opacity="0.21"/>
<path d="M242.867 303.177L251.141 308.527L250.82 309.024L242.546 303.673L242.867 303.177Z" fill="#E4E1DE" fill-opacity="0.21"/>
<path d="M247.368 296.477L255.421 302.156L255.08 302.639L247.028 296.96L247.368 296.477Z" fill="#E4E1DE" fill-opacity="0.21"/>
<path d="M251.476 290.848L259.315 296.817L258.957 297.288L251.117 291.318L251.476 290.848Z" fill="#E4E1DE" fill-opacity="0.21"/>
<path d="M255.771 285.385L263.388 291.636L263.013 292.094L255.396 285.842L255.771 285.385Z" fill="#E4E1DE" fill-opacity="0.21"/>
<path d="M260.249 280.092L267.634 286.616L267.242 287.06L259.858 280.535L260.249 280.092Z" fill="#E4E1DE" fill-opacity="0.21"/>
<path d="M264.905 274.972L272.048 281.761L271.641 282.189L264.498 275.401L264.905 274.972Z" fill="#E4E1DE" fill-opacity="0.21"/>
<path d="M270.589 269.193L277.455 276.261L277.031 276.673L270.165 269.605L270.589 269.193Z" fill="#E4E1DE" fill-opacity="0.21"/>
<path d="M275.629 264.449L282.234 271.762L281.795 272.158L275.19 264.845L275.629 264.449Z" fill="#E4E1DE" fill-opacity="0.21"/>
<path d="M280.833 259.89L287.167 267.438L286.714 267.818L280.38 260.27L280.833 259.89Z" fill="#E4E1DE" fill-opacity="0.21"/>
<path d="M286.197 255.519L292.252 263.293L291.786 263.656L285.731 255.882L286.197 255.519Z" fill="#E4E1DE" fill-opacity="0.21"/>
<path d="M291.718 251.34L297.486 259.329L297.006 259.675L291.239 251.686L291.718 251.34Z" fill="#E4E1DE" fill-opacity="0.21"/>
<path d="M298.459 246.645L303.9 254.861L303.407 255.187L297.966 246.972L298.459 246.645Z" fill="#E4E1DE" fill-opacity="0.21"/>
<path d="M304.323 242.892L309.459 251.301L308.955 251.609L303.819 243.2L304.323 242.892Z" fill="#E4E1DE" fill-opacity="0.21"/>
<path d="M310.336 239.344L315.159 247.937L314.643 248.226L309.82 239.633L310.336 239.344Z" fill="#E4E1DE" fill-opacity="0.21"/>
<path d="M316.494 236.005L320.996 244.771L320.47 245.041L315.968 236.276L316.494 236.005Z" fill="#E4E1DE" fill-opacity="0.21"/>
<path d="M322.797 232.881L326.971 241.808L326.435 242.058L322.261 233.132L322.797 232.881Z" fill="#E4E1DE" fill-opacity="0.21"/>
<path d="M329.243 229.977L333.082 239.052L332.537 239.283L328.699 230.207L329.243 229.977Z" fill="#E4E1DE" fill-opacity="0.21"/>
<path d="M335.832 227.297L339.328 236.51L338.775 236.72L335.279 227.507L335.832 227.297Z" fill="#E4E1DE" fill-opacity="0.21"/>
<path d="M342.562 224.849L345.709 234.187L345.149 234.375L342.001 225.038L342.562 224.849Z" fill="#E4E1DE" fill-opacity="0.21"/>
<path d="M349.433 222.638L352.226 232.088L351.659 232.256L348.866 222.806L349.433 222.638Z" fill="#E4E1DE" fill-opacity="0.21"/>
<path d="M356.445 220.673L358.878 230.222L358.305 230.368L355.872 220.819L356.445 220.673Z" fill="#E4E1DE" fill-opacity="0.21"/>
<path d="M363.598 218.961L365.665 228.596L365.087 228.72L363.02 219.085L363.598 218.961Z" fill="#E4E1DE" fill-opacity="0.21"/>
<path d="M370.891 217.511L372.589 227.217L372.006 227.319L370.308 217.613L370.891 217.511Z" fill="#E4E1DE" fill-opacity="0.21"/>
<path d="M378.324 216.333L379.648 226.097L379.062 226.176L377.738 216.412L378.324 216.333Z" fill="#E4E1DE" fill-opacity="0.21"/>
<path d="M384.435 215.581L385.421 225.386L384.833 225.445L383.847 215.641L384.435 215.581Z" fill="#E4E1DE" fill-opacity="0.21"/>
<path d="M392.126 214.921L392.734 224.756L392.144 224.793L391.536 214.958L392.126 214.921Z" fill="#E4E1DE" fill-opacity="0.21"/>
<path d="M399.956 214.564L400.184 224.415L399.593 224.429L399.365 214.578L399.956 214.564Z" fill="#E4E1DE" fill-opacity="0.21"/>
<path d="M407.158 214.509L407.006 224.362L406.415 224.353L406.567 214.5L407.158 214.509Z" fill="#E4E1DE" fill-opacity="0.21"/>
<path d="M415.018 214.755L414.486 224.595L413.896 224.563L414.428 214.724L415.018 214.755Z" fill="#E4E1DE" fill-opacity="0.21"/>
<path d="M421.278 215.175L420.405 224.99L419.816 224.938L420.689 215.123L421.278 215.175Z" fill="#E4E1DE" fill-opacity="0.21"/>
<path d="M428.885 215.966L427.635 225.74L427.049 225.665L428.298 215.891L428.885 215.966Z" fill="#E4E1DE" fill-opacity="0.21"/>
<path d="M436.356 217.041L434.732 226.76L434.149 226.662L435.773 216.943L436.356 217.041Z" fill="#E4E1DE" fill-opacity="0.21"/>
<path d="M443.69 218.39L441.696 228.04L441.117 227.92L443.111 218.27L443.69 218.39Z" fill="#E4E1DE" fill-opacity="0.21"/>
<path d="M450.886 220.004L448.526 229.571L447.952 229.429L450.311 219.862L450.886 220.004Z" fill="#E4E1DE" fill-opacity="0.21"/>
<path d="M456.593 221.49L453.907 230.971L453.339 230.81L456.024 221.329L456.593 221.49Z" fill="#E4E1DE" fill-opacity="0.21"/>
<path d="M463.541 223.561L460.499 232.934L459.937 232.751L462.979 223.379L463.541 223.561Z" fill="#E4E1DE" fill-opacity="0.21"/>
<path d="M470.352 225.875L466.96 235.127L466.405 234.923L469.797 225.672L470.352 225.875Z" fill="#E4E1DE" fill-opacity="0.21"/>
<path d="M477.025 228.425L473.288 237.543L472.741 237.319L476.478 228.201L477.025 228.425Z" fill="#E4E1DE" fill-opacity="0.21"/>
<path d="M484.786 231.763L480.678 240.72L480.141 240.474L484.249 231.517L484.786 231.763Z" fill="#E4E1DE" fill-opacity="0.21"/>
<path d="M491.146 234.806L486.709 243.604L486.181 243.338L490.618 234.54L491.146 234.806Z" fill="#E4E1DE" fill-opacity="0.21"/>
<path d="M497.363 238.066L492.604 246.694L492.086 246.408L496.846 237.78L497.363 238.066Z" fill="#E4E1DE" fill-opacity="0.21"/>
<path d="M503.437 241.538L498.362 249.985L497.856 249.68L502.93 241.233L503.437 241.538Z" fill="#E4E1DE" fill-opacity="0.21"/>
<path d="M509.364 245.218L503.983 253.473L503.488 253.15L508.869 244.895L509.364 245.218Z" fill="#E4E1DE" fill-opacity="0.21"/>
<path d="M515.143 249.103L509.463 257.155L508.98 256.814L514.66 248.762L515.143 249.103Z" fill="#E4E1DE" fill-opacity="0.21"/>
<path d="M521.767 253.948L515.769 261.766L515.3 261.406L521.298 253.588L521.767 253.948Z" fill="#E4E1DE" fill-opacity="0.21"/>
<path d="M527.2 258.254L520.921 265.849L520.465 265.472L526.744 257.878L527.2 258.254Z" fill="#E4E1DE" fill-opacity="0.21"/>
<path d="M532.474 262.752L525.923 270.113L525.481 269.72L532.032 262.359L532.474 262.752Z" fill="#E4E1DE" fill-opacity="0.21"/>
<path d="M537.586 267.438L530.772 274.556L530.344 274.147L537.159 267.029L537.586 267.438Z" fill="#E4E1DE" fill-opacity="0.21"/>
<path d="M542.531 272.309L535.463 279.174L535.051 278.75L542.119 271.884L542.531 272.309Z" fill="#E4E1DE" fill-opacity="0.21"/>
<path d="M548.086 278.226L540.749 284.803L540.354 284.363L547.691 277.785L548.086 278.226Z" fill="#E4E1DE" fill-opacity="0.21"/>
<path d="M552.641 283.469L545.069 289.776L544.691 289.322L552.262 283.015L552.641 283.469Z" fill="#E4E1DE" fill-opacity="0.21"/>
<path d="M557.014 288.886L549.218 294.912L548.857 294.445L556.653 288.418L557.014 288.886Z" fill="#E4E1DE" fill-opacity="0.21"/>
<path d="M561.201 294.471L553.19 300.209L552.846 299.729L560.857 293.991L561.201 294.471Z" fill="#E4E1DE" fill-opacity="0.21"/>
<path d="M565.195 300.222L556.98 305.663L556.653 305.171L564.868 299.729L565.195 300.222Z" fill="#E4E1DE" fill-opacity="0.21"/>
<path d="M569.547 307.048L561.119 312.153L560.812 311.647L569.241 306.542L569.547 307.048Z" fill="#E4E1DE" fill-opacity="0.21"/>
<path d="M573.094 313.121L564.483 317.912L564.196 317.396L572.806 312.604L573.094 313.121Z" fill="#E4E1DE" fill-opacity="0.21"/>
<path d="M576.429 319.346L567.647 323.816L567.379 323.289L576.161 318.819L576.429 319.346Z" fill="#E4E1DE" fill-opacity="0.21"/>
<path d="M579.546 325.718L570.604 329.858L570.356 329.322L579.297 325.181L579.546 325.718Z" fill="#E4E1DE" fill-opacity="0.21"/>
<path d="M582.438 332.231L573.348 336.036L573.12 335.49L582.21 331.686L582.438 332.231Z" fill="#E4E1DE" fill-opacity="0.21"/>
<path d="M585.098 338.881L575.872 342.342L575.664 341.789L584.89 338.327L585.098 338.881Z" fill="#E4E1DE" fill-opacity="0.21"/>
<path d="M587.518 345.66L578.169 348.772L577.982 348.212L587.332 345.099L587.518 345.66Z" fill="#E4E1DE" fill-opacity="0.21"/>
<path d="M589.692 352.563L580.232 355.32L580.067 354.752L589.527 351.995L589.692 352.563Z" fill="#E4E1DE" fill-opacity="0.21"/>
<path d="M591.613 359.581L582.055 361.978L581.912 361.404L591.47 359.008L591.613 359.581Z" fill="#E4E1DE" fill-opacity="0.21"/>
<path d="M593.274 366.707L583.632 368.738L583.51 368.16L593.152 366.129L593.274 366.707Z" fill="#E4E1DE" fill-opacity="0.21"/>
<path d="M594.668 373.932L584.955 375.593L584.856 375.01L594.569 373.349L594.668 373.932Z" fill="#E4E1DE" fill-opacity="0.21"/>
<path d="M595.79 381.246L586.021 382.533L585.943 381.947L595.713 380.66L595.79 381.246Z" fill="#E4E1DE" fill-opacity="0.21"/>
<path d="M596.556 387.828L586.748 388.777L586.691 388.188L596.499 387.24L596.556 387.828Z" fill="#E4E1DE" fill-opacity="0.21"/>
<path d="M597.149 395.309L587.312 395.879L587.278 395.288L597.115 394.718L597.149 395.309Z" fill="#E4E1DE" fill-opacity="0.21"/>
<path d="M597.437 402.073L587.585 402.302L587.572 401.711L597.423 401.482L597.437 402.073Z" fill="#E4E1DE" fill-opacity="0.21"/>
</svg>
