<svg xmlns="http://www.w3.org/2000/svg" width="1256.757" height="626.965" viewBox="0 0 1256.757 626.965"><g transform="translate(1256.757 0.725) rotate(90)"><line y1="1254.654" transform="translate(625.241 0)" fill="none" stroke="#3c3f45" stroke-miterlimit="10" stroke-width="2"/><line x1="29.771" y1="1226.207" transform="translate(595.469 28.447)" fill="none" stroke="#3c3f45" stroke-miterlimit="10" stroke-width="2"/><line x1="59.543" y1="1197.759" transform="translate(565.698 56.895)" fill="none" stroke="#3c3f45" stroke-miterlimit="10" stroke-width="2"/><line x1="89.314" y1="1169.32" transform="translate(535.927 85.334)" fill="none" stroke="#3c3f45" stroke-miterlimit="10" stroke-width="2"/><line x1="119.094" y1="1140.873" transform="translate(506.147 113.781)" fill="none" stroke="#3c3f45" stroke-miterlimit="10" stroke-width="2"/><line x1="148.865" y1="1112.425" transform="translate(476.375 142.229)" fill="none" stroke="#3c3f45" stroke-miterlimit="10" stroke-width="2"/><line x1="178.637" y1="1083.978" transform="translate(446.604 170.676)" fill="none" stroke="#3c3f45" stroke-miterlimit="10" stroke-width="2"/><line x1="208.408" y1="1055.53" transform="translate(416.833 199.124)" fill="none" stroke="#3c3f45" stroke-miterlimit="10" stroke-width="2"/><line x1="238.179" y1="1027.083" transform="translate(387.061 227.571)" fill="none" stroke="#3c3f45" stroke-miterlimit="10" stroke-width="2"/><line x1="267.959" y1="998.644" transform="translate(357.282 256.01)" fill="none" stroke="#3c3f45" stroke-miterlimit="10" stroke-width="2"/><line x1="297.73" y1="970.196" transform="translate(327.51 284.458)" fill="none" stroke="#3c3f45" stroke-miterlimit="10" stroke-width="2"/><line x1="327.502" y1="941.749" transform="translate(297.739 312.905)" fill="none" stroke="#3c3f45" stroke-miterlimit="10" stroke-width="2"/><line x1="357.273" y1="913.301" transform="translate(267.967 341.353)" fill="none" stroke="#3c3f45" stroke-miterlimit="10" stroke-width="2"/><line x1="387.053" y1="884.854" transform="translate(238.188 369.8)" fill="none" stroke="#3c3f45" stroke-miterlimit="10" stroke-width="2"/><line x1="416.824" y1="856.415" transform="translate(208.416 398.239)" fill="none" stroke="#3c3f45" stroke-miterlimit="10" stroke-width="2"/><line x1="446.596" y1="827.967" transform="translate(178.645 426.687)" fill="none" stroke="#3c3f45" stroke-miterlimit="10" stroke-width="2"/><line x1="476.367" y1="799.52" transform="translate(148.874 455.134)" fill="none" stroke="#3c3f45" stroke-miterlimit="10" stroke-width="2"/><line x1="506.147" y1="771.073" transform="translate(119.094 483.581)" fill="none" stroke="#3c3f45" stroke-miterlimit="10" stroke-width="2"/><line x1="535.918" y1="742.625" transform="translate(89.322 512.029)" fill="none" stroke="#3c3f45" stroke-miterlimit="10" stroke-width="2"/><line x1="565.69" y1="714.186" transform="translate(59.551 540.468)" fill="none" stroke="#3c3f45" stroke-miterlimit="10" stroke-width="2"/><line x1="595.461" y1="685.739" transform="translate(29.78 568.915)" fill="none" stroke="#3c3f45" stroke-miterlimit="10" stroke-width="2"/><line x1="625.241" y1="657.291" transform="translate(0 597.363)" fill="none" stroke="#3c3f45" stroke-miterlimit="10" stroke-width="2"/><path d="M0,.654l2.061,2.1L2.045,0H0Z" transform="translate(624.076 1254)" fill="none"/></g></svg>