<svg xmlns="http://www.w3.org/2000/svg" xmlns:xlink="http://www.w3.org/1999/xlink" viewBox="0 0 142 131"><g id="ss10197775294_1"><path d="M 0 130.413 L 0 0 L 141.212 0 L 141.212 130.413 Z" fill="transparent"></path><path d="M 86.913 53.767 C 94.114 29.21 90.073 6.389 77.886 2.794 C 65.699 -0.801 49.982 16.191 42.781 40.748 C 35.58 65.304 39.622 88.125 51.809 91.72 C 63.995 95.316 79.712 78.324 86.913 53.767 Z" fill="rgb(255,255,255)" stroke-width="4.08" stroke="rgb(0,0,0)" stroke-miterlimit="10"></path><path d="M 125.132 65.677 C 132.333 41.12 128.292 18.299 116.105 14.704 C 103.919 11.108 88.202 28.101 81.001 52.657 C 73.8 77.214 77.841 100.036 90.028 103.631 C 102.215 107.226 117.931 90.234 125.132 65.677 Z" fill="rgb(255,255,255)" stroke-width="4.08" stroke="rgb(0,0,0)" stroke-miterlimit="10"></path><path d="M 27.923 43.359 C 41.563 45.574 55.834 48.319 70.658 51.711 C 95.464 57.386 118.257 64.041 138.923 71.078" fill="transparent" stroke-width="4.08" stroke="rgb(0,0,0)" stroke-linecap="round" stroke-miterlimit="10"></path><path d="M 2.3 84.262 C 2.829 83.396 6.061 78.379 12.512 77.133 C 20.309 75.622 25.91 80.974 26.405 81.458" fill="transparent" stroke-width="4.08" stroke="rgb(255, 255, 255)" stroke-linecap="round" stroke-miterlimit="10"></path><path d="M 58.41 128.106 C 53.557 127.979 40.343 126.964 29.429 117.159 C 23.242 111.611 20.218 105.417 18.78 102.383 C 14.272 92.936 13.685 84.273 13.708 79.417" fill="transparent" stroke-width="4.08" stroke="rgb(255, 255, 255)" stroke-linecap="round" stroke-miterlimit="10"></path><path d="M 69.554 65.933 C 69.784 57.386 66.023 50.211 59.847 48.666 C 52.2 46.739 43.747 54.202 40.964 65.322 C 38.193 76.441 42.137 87.019 49.785 88.945 C 56.006 90.514 62.757 85.866 66.564 78.079 L 61.423 69.82 L 69.554 65.922 Z" fill="rgb(0,0,0)"></path><path d="M 108.321 76.857 C 108.551 68.309 104.79 61.135 98.615 59.589 C 90.967 57.663 82.514 65.126 79.731 76.245 C 76.948 87.365 80.904 97.942 88.553 99.869 C 94.774 101.437 101.524 96.789 105.331 89.003 L 100.19 80.744 L 108.321 76.845 Z" fill="rgb(0,0,0)"></path></g></svg>